<svg xmlns="http://www.w3.org/2000/svg" viewBox="0 19.040000915527344 125.94999694824219 37.91999816894531" data-asc="1.10546875"><g fill="#000000"><g fill="#000000" transform="translate(0, 0)"><path d="M20.51 22.56Q20.70 21.75 20.85 21.39Q21.00 21.02 21.48 20.90L27.81 19.41Q28.10 19.31 28.44 19.31Q28.76 19.31 28.91 19.53Q29.05 19.75 29.05 20.36Q28.91 20.95 28.81 22.16Q28.71 23.36 28.66 24.80Q28.61 26.25 28.59 27.70Q28.56 29.15 28.56 30.22L28.56 31.57Q28.56 33.08 28.54 34.86Q28.52 36.65 28.48 38.48Q28.44 40.31 28.39 42.09Q28.34 43.87 28.30 45.43L28.15 49.61Q28.13 49.73 28.13 49.83Q28.13 49.93 28.13 50.02L28.13 50.39Q28.13 50.81 28.14 51.09Q28.15 51.37 28.15 51.59Q28.15 51.83 28.11 52.03Q28.08 52.22 27.93 52.40Q27.78 52.59 27.53 52.78Q27.27 52.98 26.83 53.27Q26.59 53.44 26.03 53.77Q25.46 54.10 24.78 54.52Q24.10 54.93 23.36 55.37Q22.63 55.81 22.02 56.16Q21.41 56.52 21.03 56.74Q20.65 56.96 20.65 56.96L9.33 39.53L8.30 53.81Q8.28 54.00 8.22 54.22Q8.15 54.44 7.89 54.57Q7.67 54.66 7.13 54.87Q6.59 55.08 5.87 55.35Q5.15 55.62 4.36 55.90Q3.56 56.18 2.86 56.41Q2.15 56.64 1.60 56.79Q1.05 56.93 0.85 56.93Q0.49 56.93 0.24 56.74Q0 56.54 0 56.03Q0.24 52.98 0.56 49.38Q0.88 45.78 1.17 41.99Q1.46 38.21 1.72 34.44Q1.98 30.66 2.15 27.27Q2.15 27.17 1.84 26.62Q1.54 26.07 1.16 25.43Q0.78 24.78 0.48 24.21Q0.17 23.63 0.17 23.49Q0.17 23.32 0.35 23.17Q0.54 23.02 0.95 22.78L7.47 19.09Q7.54 19.09 7.68 19.07Q7.81 19.04 7.91 19.04Q8.18 19.04 8.34 19.10Q8.50 19.17 8.67 19.48L20.51 40.84L20.51 22.56ZM63.70 20.36Q63.65 21.02 63.53 22.30Q63.40 23.58 63.24 25.21Q63.09 26.83 62.92 28.61Q62.74 30.40 62.59 32.02Q62.43 33.64 62.30 34.96Q62.18 36.28 62.13 36.94Q61.62 42.14 60.39 45.86Q59.16 49.58 57.15 51.95Q55.15 54.32 52.36 55.43Q49.56 56.54 45.90 56.54Q43.38 56.54 41.16 55.63Q38.94 54.71 37.28 53.05Q35.62 51.39 34.66 49.06Q33.69 46.73 33.69 43.87Q33.69 43.51 33.75 42.54Q33.81 41.58 33.92 40.19Q34.03 38.79 34.17 37.02Q34.30 35.25 34.45 33.25L34.74 29.20Q34.89 26.98 34.96 25.50Q35.03 24.02 35.12 23.12Q35.21 22.22 35.38 21.80Q35.55 21.39 35.91 21.26L44.24 19.41Q44.56 19.31 44.90 19.31Q45.29 19.31 45.42 19.53Q45.56 19.75 45.56 20.36L43.70 39.60Q43.65 40.45 43.53 41.46Q43.41 42.46 43.41 43.51Q43.41 44.14 43.57 44.90Q43.73 45.65 44.14 46.33Q44.56 47.00 45.28 47.45Q46.00 47.90 47.14 47.90Q48.54 47.90 49.39 47.30Q50.24 46.70 50.76 45.72Q51.27 44.73 51.50 43.47Q51.73 42.21 51.88 40.89Q52.00 39.36 52.17 37.28Q52.34 35.21 52.51 32.84L53.22 23.10Q53.27 22.66 53.28 22.36Q53.30 22.07 53.34 21.88Q53.39 21.68 53.55 21.58Q53.71 21.48 54.05 21.44L62.38 19.41Q62.70 19.31 63.04 19.31Q63.38 19.31 63.54 19.52Q63.70 19.73 63.70 20.36ZM79.69 53.32Q79.66 53.54 79.60 53.75Q79.54 53.96 79.27 54.08Q79.17 54.13 78.31 54.43Q77.44 54.74 76.31 55.14Q75.17 55.54 74.06 55.94Q72.95 56.35 72.36 56.57Q72.07 56.69 71.64 56.82Q71.22 56.96 70.80 56.96Q70.46 56.96 70.20 56.79Q69.95 56.62 69.95 56.15Q69.95 55.08 70.01 54.19Q70.07 53.30 70.17 52.32Q70.26 51.34 70.37 50.16Q70.48 48.97 70.58 47.34Q70.70 45.19 70.85 43.20Q71.00 41.21 71.14 39.06L71.48 34.89Q71.56 33.86 71.63 32.80Q71.70 31.74 71.78 30.62L72.05 27.64Q72.05 27.59 71.90 27.59Q71.70 27.59 71.24 27.67Q70.78 27.76 70.14 27.88Q69.51 28.00 68.74 28.14Q67.97 28.27 67.16 28.39Q66.97 28.39 66.78 28.31Q66.60 28.22 66.60 28.10Q66.60 28.00 66.65 27.95L70.61 21.04Q71.95 20.75 73.50 20.45Q75.05 20.14 76.83 19.90Q78.61 19.65 80.62 19.49Q82.62 19.34 84.86 19.34Q87.40 19.38 89.81 19.84Q92.21 20.29 94.08 21.35Q95.95 22.41 97.08 24.23Q98.22 26.05 98.22 28.83Q98.22 30.37 97.69 31.67Q97.17 32.96 96.35 34.00Q95.53 35.03 94.56 35.83Q93.58 36.62 92.69 37.18Q91.80 37.74 91.11 38.07Q90.43 38.40 90.19 38.50Q90.19 38.55 90.22 38.62Q90.26 38.70 90.38 38.90Q90.50 39.11 90.73 39.49Q90.97 39.87 91.33 40.53Q91.72 41.11 92.26 42.09Q92.80 43.07 93.54 44.40Q94.29 45.73 95.26 47.36Q96.24 49.00 97.51 50.88Q97.92 51.25 98.46 51.33Q99.00 51.42 99.46 51.43Q99.93 51.44 100.24 51.48Q100.56 51.51 100.56 51.78Q100.56 51.98 100.16 52.23Q99.76 52.49 99.22 52.76Q98.68 53.03 98.13 53.27Q97.58 53.52 97.29 53.66Q96.70 53.96 96.07 54.22Q95.43 54.49 94.70 54.82Q93.97 55.15 93.08 55.59Q92.19 56.03 91.06 56.64Q90.77 56.81 90.52 56.87Q90.26 56.93 90.04 56.93Q89.60 56.93 89.28 56.73Q88.96 56.52 88.75 56.23Q88.53 55.93 88.39 55.63Q88.26 55.32 88.16 55.13L80.88 39.79L79.69 53.32M81.18 36.79Q82.42 36.79 83.76 36.16Q85.11 35.52 86.21 34.52Q87.30 33.52 88.01 32.25Q88.72 30.98 88.72 29.69Q88.72 26.15 84.47 26.15Q83.67 26.15 83.13 26.26Q82.59 26.37 82.15 26.42L81.18 36.79ZM103.44 46.19Q103.44 46.17 103.43 46.14Q103.42 46.12 103.42 46.09Q103.42 45.68 103.86 45.68Q104.08 45.68 104.35 45.90Q105.66 47.14 107.28 47.88Q108.89 48.61 110.79 48.61Q111.30 48.61 111.96 48.50Q112.62 48.39 113.21 48.13Q113.79 47.88 114.20 47.46Q114.60 47.05 114.60 46.41Q114.60 45.70 114.26 45.14Q113.92 44.58 113.35 44.19Q113.13 44.04 112.70 43.70Q112.26 43.36 111.69 42.92Q111.13 42.48 110.52 41.98Q109.91 41.48 109.36 41.03Q108.81 40.58 108.37 40.21Q107.93 39.84 107.71 39.65Q106.27 38.57 105.43 37.48Q104.59 36.38 104.15 35.18Q103.71 33.98 103.59 32.70Q103.47 31.42 103.47 29.98Q103.47 27.83 104.49 25.90Q105.52 23.97 107.39 22.55Q109.25 21.12 111.87 20.28Q114.48 19.43 117.68 19.43Q118.07 19.43 118.85 19.52Q119.63 19.60 120.57 19.80Q121.51 20.00 122.49 20.34Q123.46 20.68 124.27 21.22Q124.54 21.41 124.69 21.61Q124.85 21.80 124.90 22.22Q125.02 24.19 125.10 26.11Q125.17 28.03 125.29 30.18Q125.29 30.59 125.12 30.73Q124.95 30.86 124.68 30.86Q124.41 30.86 124.27 30.71Q123.56 30.00 122.80 29.32Q122.05 28.64 121.22 28.11Q120.39 27.59 119.45 27.27Q118.51 26.95 117.41 26.95Q116.75 26.95 116.09 27.06Q115.43 27.17 114.89 27.47Q114.36 27.76 114.03 28.27Q113.70 28.78 113.70 29.57Q113.70 30.40 113.90 31.01Q114.11 31.62 114.94 32.15L120.80 36.13Q122.41 37.28 123.41 38.42Q124.41 39.55 124.98 40.67Q125.54 41.80 125.74 42.88Q125.95 43.97 125.95 45.02Q125.95 46.73 125.39 48.24Q124.83 49.76 123.85 51.04Q122.88 52.32 121.57 53.33Q120.26 54.35 118.77 55.07Q117.29 55.79 115.69 56.16Q114.09 56.54 112.55 56.54Q111.35 56.54 110.19 56.51Q109.03 56.47 107.93 56.31Q106.84 56.15 105.81 55.82Q104.79 55.49 103.86 54.91L103.44 46.19Z"/></g></g></svg>